<svg width="41" height="42" viewBox="0 0 41 42" fill="none" xmlns="http://www.w3.org/2000/svg">
<path opacity="0.5" d="M40.4028 1.15928L30.7575 38.6365C30.7085 38.8066 30.5123 38.8576 30.3979 38.7386L23.9405 32.0189L28.7795 13.2377C28.8285 13.0676 28.6814 12.9145 28.5179 12.9655L10.4699 18.0011L4.04518 11.3154C3.93075 11.1963 3.97979 10.9922 4.14327 10.9411L40.1412 0.887092C40.3047 0.853068 40.4518 1.00618 40.4028 1.15928Z" fill="#00B37E"/>
<path opacity="0.5" d="M23.9402 32.0185L21.4553 41.7153C21.4062 41.8854 21.2101 41.9365 21.0956 41.8174L1.0532 20.9778C0.938761 20.8587 0.987804 20.6546 1.15128 20.6036L10.4695 18.0007L23.9402 32.0185Z" fill="#00B37E"/>
<path d="M28.7786 13.2374L23.9397 32.0185L10.4691 18.0007L28.5171 12.9652C28.6805 12.9142 28.8277 13.0673 28.7786 13.2374Z" fill="#00B37E"/>
</svg>
